{"title":"Prometheus 2012 1080p BluRay QEBSx AAC51 MP4-FASM","uid":8902237,"size":2994607071,"categoryP":"video","categoryS":"hd___movies","magnet":"?xt=urn:btih:5550d83df6fb56300db5053a434946981e8ef037&amp;dn=Prometheus+2012+1080p+BluRay+QEBSx+AAC51+MP4-FASM&amp;tr=udp%3A%2F%2Ftracker.openbittorrent.com%3A80&amp;tr=udp%3A%2F%2Fopen.demonii.com%3A1337&amp;tr=udp%3A%2F%2Ftracker.coppersurfer.tk%3A6969&amp;tr=udp%3A%2F%2Fexodus.desync.com%3A6969","seeders":5,"leechers":2,"uploader":"SaM","files":9,"time":1378830883,"description":" &lt;a href=&quot;http://imdb.com/title/tt1446714/&quot; rel=&quot;nofollow&quot; target=&quot;_NEW&quot;&gt;http://imdb.com/title/tt1446714/&lt;/a&gt;\n\nPlot:\nA team of scientists travels through the universe on the spaceship &quot;Prometheus&quot;\non a voyage to investigate alien life forms. The team of scientists becomes \nstranded on an Alien world, and as they struggle to survive it becomes clear that\nthe horrors they experience are not just a threat to themselves, but to all of \nmankind.  \n &lt;a href=&quot;\nhttp://screenshotcomparison.com/comparison/37401/&quot; rel=&quot;nofollow&quot; target=&quot;_NEW&quot;&gt;\nhttp://screenshotcomparison.com/comparison/37401/&lt;/a&gt;\n\nSUBTITLES:\nENGLISH, POLISH others from other BluRay releases on subscene.com\n\nGeneral\nComplete name                  : Prometheus_2012_1080p_BluRay_QEBSx_AAC51_MP4-FASM.mp4\nFormat                         : MPEG-4\nFormat profile                 : Base Media\nCodec ID                       : isom\nFile size                      : 2.76 GiB\nDuration                       : 2h 3mn\nOverall bit rate mode          : Variable\nOverall bit rate               : 3 192 Kbps\nEncoded date                   : UTC 2013-08-19 17:31:07\nTagged date                    : UTC 2013-08-19 17:31:07\n\nVideo\nID                             : 1\nFormat                         : AVC\nFormat/Info                    : Advanced Video Codec\nFormat profile                 : &lt;a class=&quot;__cf_email__&quot; href=&quot;/cdn-cgi/l/email-protection&quot; data-cfemail=&quot;5810313f3018146c7668&quot;&gt;[email&amp;#160;protected]&lt;/a&gt;&lt;script cf-hash='f9e31' type=&quot;text/javascript&quot;&gt;\n/* &lt;![CDATA[ */!function(){try{var t=&quot;currentScript&quot;in document?document.currentScript:function(){for(var t=document.getElementsByTagName(&quot;script&quot;),e=t.length;e--;)if(t[e].getAttribute(&quot;cf-hash&quot;))return t[e]}();if(t&amp;&amp;t.previousSibling){var e,r,n,i,c=t.previousSibling,a=c.getAttribute(&quot;data-cfemail&quot;);if(a){for(e=&quot;&quot;,r=parseInt(a.substr(0,2),16),n=2;a.length-n;n+=2)i=parseInt(a.substr(n,2),16)^r,e+=String.fromCharCode(i);e=document.createTextNode(e),c.parentNode.replaceChild(e,c)}}}catch(u){}}();/* ]]&gt; */&lt;/script&gt;\nFormat settings, CABAC         : Yes\nFormat settings, ReFrames      : 5 frames\nCodec ID                       : avc1\nCodec ID/Info                  : Advanced Video Coding\nDuration                       : 2h 3mn\nBit rate                       : 2 796 Kbps\nMaximum bit rate               : 7 799 Kbps\nWidth                          : 1 920 pixels\nHeight                         : 800 pixels\nDisplay aspect ratio           : 2.40:1\nFrame rate mode                : Constant\nFrame rate                     : 23.976 fps\nColor space                    : YUV\nChroma subsampling             : 4:2:0\nBit depth                      : 8 bits\nScan type                      : Progressive\nBits/(Pixel*Frame)             : 0.076\nStream size                    : 2.42 GiB (88%)\nWriting library                : FASM Quality Enhancer Bitrate Squeezer X.2 (c)2013 Fachman\nEncoded date                   : UTC 2013-08-19 17:31:07\nTagged date                    : UTC 2013-08-19 17:31:52\nColor primaries                : BT.709\nTransfer characteristics       : BT.709\nMatrix coefficients            : BT.709\n\nAudio\nID                             : 2\nFormat                         : AAC\nFormat/Info                    : Advanced Audio Codec\nFormat profile                 : LC\nCodec ID                       : 40\nDuration                       : 2h 3mn\nBit rate mode                  : Variable\nBit rate                       : 392 Kbps\nMaximum bit rate               : 554 Kbps\nChannel(s)                     : 6 channels\nChannel positions              : Front: L C R, Side: L R, LFE\nSampling rate                  : 48.0 KHz\nCompression mode               : Lossy\nStream size                    : 347 MiB (12%)\nLanguage                       : English\nEncoded date                   : UTC 2013-08-19 17:31:48\nTagged date                    : UTC 2013-08-19 17:31:52\n\nMenu\n00:00:00.000                   : : en:Chapter 00\n00:05:13.146                   : : en:Chapter 01\n00:07:44.881                   : : en:Chapter 02\n00:11:31.524                   : : en:Chapter 03\n00:15:09.783                   : : en:Chapter 04\n00:20:04.912                   : : en:Chapter 05\n00:22:32.809                   : : en:Chapter 06\n00:27:43.119                   : : en:Chapter 07\n00:31:57.832                   : : en:Chapter 08\n00:34:10.840                   : : en:Chapter 09\n00:37:53.229                   : : en:Chapter 10\n00:40:45.359                   : : en:Chapter 11\n00:45:49.329                   : : en:Chapter 12\n00:48:47.925                   : : en:Chapter 13\n00:50:23.061                   : : en:Chapter 14\n00:53:56.399                   : : en:Chapter 15\n00:56:32.222                   : : en:Chapter 16\n00:59:31.609                   : : en:Chapter 17\n01:01:29.185                   : : en:Chapter 18\n01:04:17.562                   : : en:Chapter 19\n01:06:01.457                   : : en:Chapter 20\n01:08:57.883                   : : en:Chapter 21\n01:11:13.519                   : : en:Chapter 22\n01:15:10.631                   : : en:Chapter 23\n01:17:06.038                   : : en:Chapter 24\n01:25:02.305                   : : en:Chapter 25\n01:27:09.349                   : : en:Chapter 26\n01:30:10.363                   : : en:Chapter 27\n01:32:43.724                   : : en:Chapter 28\n01:35:23.134                   : : en:Chapter 29\n01:37:46.861                   : : en:Chapter 30\n01:40:46.373                   : : en:Chapter 31\n01:43:46.220                   : : en:Chapter 32\n01:48:28.793                   : : en:Chapter 33\n01:52:08.096                   : : en:Chapter 34\n01:58:06.287                   : : en:Chapter 35\n\n &lt;a href=&quot;\nhttp://www.imagebam.com/image/11254e270475065&quot; rel=&quot;nofollow&quot; target=&quot;_NEW&quot;&gt;\nhttp://www.imagebam.com/image/11254e270475065&lt;/a&gt;\n &lt;a href=&quot;\nhttp://www.imagebam.com/image/e36fb4270475738&quot; rel=&quot;nofollow&quot; target=&quot;_NEW&quot;&gt;\nhttp://www.imagebam.com/image/e36fb4270475738&lt;/a&gt;\n &lt;a href=&quot;\nhttp://www.imagebam.com/image/49a7ee270476639&quot; rel=&quot;nofollow&quot; target=&quot;_NEW&quot;&gt;\nhttp://www.imagebam.com/image/49a7ee270476639&lt;/a&gt;","torrent":{"xt":"urn:btih:5550d83df6fb56300db5053a434946981e8ef037","amp;dn":"Prometheus+2012+1080p+BluRay+QEBSx+AAC51+MP4-FASM","amp;tr":["udp%3A%2F%2Ftracker.openbittorrent.com%3A80","udp%3A%2F%2Fopen.demonii.com%3A1337","udp%3A%2F%2Ftracker.coppersurfer.tk%3A6969","udp%3A%2F%2Fexodus.desync.com%3A6969"],"infoHash":"5550d83df6fb56300db5053a434946981e8ef037","infoHashBuffer":{"type":"Buffer","data":[85,80,216,61,246,251,86,48,13,181,5,58,67,73,70,152,30,142,240,55]},"announce":[],"urlList":[]}}